<?xml version="1.0" standalone="no"?>
<!DOCTYPE svg PUBLIC "-//W3C//DTD SVG 1.1//EN" "http://www.w3.org/Graphics/SVG/1.1/DTD/svg11.dtd" >
<svg xmlns="http://www.w3.org/2000/svg" xmlns:xlink="http://www.w3.org/1999/xlink" version="1.1">
<metadata>
Created by FontForge 20170731 at Sun Sep 16 00:05:35 2018
 By Aleksey,,,
Copyright (c) 2018 by Ramandhani Nugraha. All rights reserved.
</metadata>
<defs>
<font id="MODULAR-Outline14" horiz-adv-x="480" >
  <font-face 
    font-family="MODULAR Outline 14"
    font-weight="400"
    font-stretch="normal"
    units-per-em="1000"
    panose-1="0 0 0 0 0 0 0 0 0 0"
    ascent="800"
    descent="-200"
    x-height="744"
    cap-height="744"
    bbox="-21 -110 987 860"
    underline-thickness="50"
    underline-position="-200"
    unicode-range="U+000A-203A"
  />
<missing-glyph horiz-adv-x="500" 
 />
    <glyph glyph-name=".notdef" horiz-adv-x="500" 
 />
    <glyph glyph-name=".null" horiz-adv-x="0" 
 />
    <glyph glyph-name="nonmarkingreturn" horiz-adv-x="333" 
 />
    <glyph glyph-name="controlLF" unicode="&#xa;" horiz-adv-x="0" 
 />
    <glyph glyph-name="controlCR" unicode="&#xd;" horiz-adv-x="0" 
 />
    <glyph glyph-name="space" unicode=" " horiz-adv-x="200" 
 />
    <glyph glyph-name="exclam" unicode="!" horiz-adv-x="205" 
d="M185 172v540h-165v-540h165zM60 212v460h85v-460h-85zM99 -22q32 0 55 25q22 24 22 56q0 34 -22.5 57.5t-54.5 23.5q-33 0 -54 -24q-22 -24 -22 -57q0 -32 22 -56q22 -25 54 -25zM99 100q16 0 26.5 -12t10.5 -29q0 -16 -11 -28.5t-26 -12.5q-14 0 -25 12.5t-11 28.5
q0 17 10.5 29t25.5 12z" />
    <glyph glyph-name="quotedbl" unicode="&#x22;" horiz-adv-x="366" 
d="M20 741h151v-118l-21 -38l-27 -45h-103v201zM195 741h151v-118l-21 -38l-27 -45h-103v201zM131 633v68h-71v-121h40l15 25zM306 633v68h-71v-121h40l15 25z" />
    <glyph glyph-name="numbersign" unicode="#" horiz-adv-x="1007" 
d="M577 -12l84 151h90l83 164h-82l54 97h71l83 163h-63l90 162h-184l-90 -162h-194l94 169h-184l-94 -169h-89l-95 -163h94l-54 -97h-71l-95 -164h75l-80 -144h184l80 144h193l-84 -151h184zM461 28l84 151h-285l-80 -144h-92l80 144h-73l48 84h71l99 177h-92l48 83h90
l94 169h92l-94 -169h285l90 162h93l-90 -162h66l-42 -83h-71l-98 -177h85l-42 -84h-89l-85 -151h-92zM592 263l98 177h-285l-98 -177h285zM375 303l54 97h193l-54 -97h-193z" />
    <glyph glyph-name="dollar" unicode="$" horiz-adv-x="487" 
d="M325 -110v88q37 14 62 39q60 51 76 137q16 90 -25 164q-37 69 -106 100h126v108q0 86 -66 149q-29 26 -67 42v92h-164v-91q-60 -24 -97 -78q-32 -44 -41 -99q-10 -54 9 -108v-1q19 -49 54 -81q41 -38 99 -56l11 -3q5 -1 13 -3.5t10 -3.5q26 -8 36 -12q25 -10 39 -32
q13 -26 8 -58q-4 -26 -23 -43l-1 -1q-15 -13 -36 -13q-23 0 -39 14q-12 10 -12 28v123h-165v-123q0 -85 65 -147q30 -29 70 -44v-87h164zM201 -70v76l-14 5q-42 13 -68 39q-53 50 -53 118v83h85v-83q0 -35 25 -57q27 -25 66 -25q37 0 63 23q30 26 36 67q8 44 -11 83l-1 1
q-19 34 -59 50q-14 6 -39 13q-2 1 -10 3.5t-13 3.5l-12 4q-95 28 -126 112q-16 46 -7 88v1q6 43 33 81v1q34 50 91 68l14 5v79h84v-81l14 -4q36 -12 66 -39q53 -50 53 -119v-68h-85v68q0 35 -26 58q-27 25 -65 25q-47 0 -77 -41q-14 -21 -20 -46v-1q-3 -24 4 -46
q16 -44 72 -61l11 -3q52 -17 67 -22l1 -1q67 -23 103 -89q34 -63 21 -138q-14 -73 -63 -114l-1 -1q-24 -22 -62 -36l-13 -4v-76h-84zM232 452q-38 13 -45 36q-5 12 -3 26q4 18 13 30q17 25 45 25q23 0 38 -15q13 -11 13 -28v-92l-49 15z" />
    <glyph glyph-name="percent" unicode="%" horiz-adv-x="883" 
d="M322 -25l144 259q-3 -16 -3 -33q0 -85 55 -148h1q26 -29 64 -48q37 -18 80 -18t80 18q36 17 65 48q55 61 55 148q0 86 -55 149q-58 66 -145 66q-68 0 -120 -43l199 359h-188l-138 -250q3 20 3 40q0 87 -55 148q-59 67 -145 67q-85 0 -144 -67q-55 -61 -55 -148
q0 -86 55 -147q59 -67 144 -67q72 0 127 49l-211 -382h187zM219 697q68 0 115 -53q45 -51 45 -122q0 -70 -45 -120q-46 -54 -115 -54q-67 0 -114 53q-45 51 -45 121t44 122q48 53 115 53zM202 15l376 677h96l-375 -677h-97zM219 433q30 0 52 24h1q22 27 22 65q0 41 -23 66
q-22 24 -52 24q-29 0 -51 -24q-24 -26 -24 -66q0 -37 23 -65h1q21 -24 51 -24zM198 483q-14 16 -14 39q0 24 13 39q11 11 22 11q12 0 23 -11q12 -13 12 -39q0 -25 -13 -39q-10 -10 -22 -10q-11 0 -21 10zM548 80q-45 51 -45 121q0 71 45 122q48 53 115 53q68 0 115 -53
q45 -51 45 -122q0 -70 -45 -121q-48 -53 -115 -53t-115 53zM663 112q30 0 52 24q23 28 23 65q0 39 -23 65v1q-21 24 -52 24q-29 0 -52 -24v-1q-23 -26 -23 -65q0 -37 23 -65q22 -24 52 -24zM641 163q-13 15 -13 38t13 39q11 11 22 11t22 -11q13 -16 13 -39t-13 -38
q-9 -11 -22 -11t-22 11z" />
    <glyph glyph-name="ampersand" unicode="&#x26;" horiz-adv-x="548" 
d="M492 -25v329h36v164h-36v67h-164v-67h-55q-35 0 -48 15q-12 14 -9 46q2 16 11 28.5t24 12.5h244v146h-221q-82 0 -139 -42q-56 -39 -77 -101q-17 -49 -8 -98q8 -44 32 -80q-49 -64 -59 -139q-12 -82 20 -152q26 -58 77 -92q57 -37 128 -37h244zM96 560q16 49 62 82
q49 34 116 34h181v-66h-204q-29 0 -49.5 -21t-25.5 -55v-1q-5 -51 20 -77q24 -28 77 -28h95v67h84v-67h36v-84h-36v-329h-204q-61 0 -106 30q-42 28 -63 75q-28 60 -17 130q11 75 61 131l11 13l-11 13q-26 32 -34 75q-6 41 7 78zM261 77q43 0 75 32q29 31 31 71l1 164h-20
q-42 0 -57 1q-38 0 -49 -1q-38 0 -62 -27q-38 -39 -33 -108q2 -52 30 -88q32 -44 84 -44zM243 304h1q10 1 47 1q10 -1 36 -1v-124q0 -27 -20.5 -45t-45.5 -18q-31 0 -52 27q-20 27 -22 67q-3 52 22 79q13 14 34 14z" />
    <glyph glyph-name="quotesingle" unicode="'" horiz-adv-x="191" 
d="M20 743h151v-118l-21 -38l-27 -45h-103v201zM131 635v68h-71v-121h40l15 25z" />
    <glyph glyph-name="parenleft" unicode="(" horiz-adv-x="407" 
d="M339 2l-29 33q-14 16 -19 23h-1q-125 159 -102 358q10 88 51 166q41 81 109 141l39 35h-230l-6 -8q-104 -138 -126 -315q-13 -108 11 -218q26 -113 87 -206l6 -9h210zM151 42q-53 84 -76 184q-22 100 -10 204q18 159 112 288h108q-51 -57 -82 -118q-43 -84 -54 -179
q-25 -209 103 -379h-101z" />
    <glyph glyph-name="parenright" unicode=")" horiz-adv-x="407" 
d="M279 3l6 9q125 195 97 424q-18 172 -126 315l-6 8h-230l39 -35q139 -122 161 -306q10 -94 -15 -186q-25 -93 -87 -172v-1q-12 -14 -20 -22l-34 -34h215zM156 43q61 83 88 178q27 99 15 201q-20 171 -137 297h108q95 -130 113 -287q25 -210 -86 -389h-101z" />
    <glyph glyph-name="asterisk" unicode="*" horiz-adv-x="288" 
d="M187 542l77 53l-42 61l46 19l-35 86l-43 -17v60h-93v-60l-42 17l-35 -86l54 -22l-41 -58l78 -53l38 57zM89 605l46 66l-63 26l5 12l60 -25v80h13v-80l61 25l5 -12l-54 -23l46 -69l-10 -7l-49 72l-49 -72z" />
    <glyph glyph-name="plus" unicode="+" horiz-adv-x="491" 
d="M328 138v143h143v165h-143v143h-165v-143h-143v-165h143v-143h165zM203 178v143h-143v85h143v143h85v-143h143v-85h-143v-143h-85z" />
    <glyph glyph-name="comma" unicode="," horiz-adv-x="191" 
d="M20 106h151v-118l-21 -38l-27 -45h-103v201zM131 -2v68h-71v-121h40l15 25z" />
    <glyph glyph-name="hyphen" unicode="-" horiz-adv-x="490" 
d="M470 219v165h-450v-165h450zM60 259v85h370v-85h-370z" />
    <glyph glyph-name="period" unicode="." horiz-adv-x="199" 
d="M99 5q34 0 57 23.5t23 58.5q0 36 -22.5 59.5t-56.5 23.5q-35 0 -57.5 -23t-22.5 -60q0 -35 21 -57q23 -25 58 -25zM100 130q18 0 28.5 -11.5t10.5 -31.5q0 -19 -11 -30t-29 -11q-17 0 -28 11.5t-11 29.5q0 19 11 31t29 12z" />
    <glyph glyph-name="slash" unicode="/" horiz-adv-x="580" 
d="M188 -29l420 756h-188l-420 -756h188zM68 11l376 676h96l-376 -676h-96z" />
    <glyph glyph-name="zero" unicode="0" horiz-adv-x="523" 
d="M261 -2q100 0 171 71t71 171v304q0 100 -71 171t-171 71q-101 0 -170 -71q-71 -71 -71 -171v-304q0 -102 71 -171q69 -71 170 -71zM261 746q83 0 142 -59q60 -60 60 -143v-304q0 -83 -60 -143q-59 -59 -142 -59t-142 59t-59 143v304q0 82 59 143q59 59 142 59zM183 326
l146 315l-18 9q-27 12 -50 12q-49 0 -82 -35q-34 -34 -34 -83v-209zM261 622q4 0 14 -2l-90 -194v118q0 32 22 54l1 1q21 23 53 23zM261 123q46 0 82 34l1 1q33 36 33 82v215l-38 9l-148 -320l19 -9q24 -12 51 -12zM245 165l92 199v-124q0 -32 -22 -54q-23 -23 -54 -23
q-4 0 -16 2z" />
    <glyph glyph-name="one" unicode="1" horiz-adv-x="289" 
d="M269 -1v759h-249v-150h85v-609h164zM145 39v609h-85v70h169v-679h-84z" />
    <glyph glyph-name="two" unicode="2" horiz-adv-x="474" 
d="M20 -3l434 3v253h-165v-90h-101q5 18 20 37.5t28 30.5l39 33l18 14v1l3 3q42 34 62.5 53t46.5 52.5t36.5 72.5t10.5 90q0 101 -53 165q-58 69 -157 69q-95 0 -160 -71q-59 -65 -59 -162v-20h165v20q0 33 16 51q15 17 38 17t31 -10q14 -17 14 -59q0 -30 -13.5 -55
t-28.5 -40t-52 -45l-12 -10l-10 -8q-76 -62 -103 -100q-48 -66 -48 -151v-144zM206 370l12 9q30 25 44 37.5t32 34.5t25.5 45.5t7.5 53.5q0 57 -23 85q-20 24 -62 24q-40 0 -67 -30q-20 -22 -25 -58h-86q6 70 48 115q52 58 130 58q81 0 127 -55q43 -54 43 -139
q0 -45 -8.5 -78t-31.5 -62.5t-41.5 -46.5t-59.5 -50l-18 -15v-1l-3 -2q-53 -44 -70 -65q-34 -41 -35 -87v-21l184 1v90h85v-173l-354 -3v104q0 72 41 128q25 35 96 92z" />
    <glyph glyph-name="three" unicode="3" horiz-adv-x="587" 
d="M293 -18q112 0 194 80q80 82 80 194q-2 114 -81 193q-26 26 -59 45l64 75l16 47v139h-448v-226h164v93h96l-187 -222l126 -106l57 68q31 -6 56 -29q31 -33 31 -77t-31 -77q-35 -33 -78 -33q-44 0 -77 33q-32 32 -32 77v20h-164v-20q0 -112 80 -194q78 -80 193 -80z
M128 90q-61 62 -67 146h84q8 -51 43 -86q44 -44 105 -44q59 0 105 44h1q43 45 43 106q0 60 -43 105h-1q-35 35 -88 43l-11 1l-46 -55l-65 54l217 258h-222v-93h-84v146h368v-92l-12 -33l-93 -111l25 -10q40 -17 71 -48q67 -67 69 -165q0 -96 -68 -166q-70 -68 -166 -68
q-97 0 -165 68z" />
    <glyph glyph-name="four" unicode="4" horiz-adv-x="470" 
d="M425 2v202h25v164h-25v154h-156l108 239h-175l-182 -405l1 -71v-83l239 1v-201h165zM300 42v202l-239 -1v42l-1 63l168 373h87l-177 -393h162v154h85v-154h25v-84h-25v-202h-85zM199 368l61 133v-133h-61z" />
    <glyph glyph-name="five" unicode="5" horiz-adv-x="547" 
d="M259 -4q85 1 149.5 48.5t96.5 133.5v1q19 53 22 118v1q0 64 -19 118q-25 78 -83 126q-46 38 -104 50h143v165h-444v-421h111l52 -9l3 20q8 42 32 65q25 21 53 20q59 -2 81 -67q10 -30 10 -65q-2 -36 -12 -66q-27 -73 -92 -74h-1q-28 0 -49 18q-21 19 -21 58v22l-165 -2
v-22q2 -55 21 -101q18 -43 53 -75q64 -62 163 -62zM63 217h85q6 -44 33 -68q31 -29 76 -29h1q45 1 79 27.5t51 73.5q13 38 14 78v1q0 41 -12 77q-14 44 -45 69t-72 26q-46 2 -82 -30q-28 -26 -40 -69l-17 3h-74v341h364v-85h-279v-115l29 16q47 24 100 24q74 -3 126 -46
q48 -41 71 -107q16 -50 16 -106q-1 -53 -19 -106q-28 -71 -77 -111q-57 -45 -132 -45q-82 0 -136 51q-52 48 -60 130zM185 592h36q-26 -7 -36 -11v11z" />
    <glyph glyph-name="six" unicode="6" horiz-adv-x="544" 
d="M271 1q51 0 101 22q46 23 81 61q71 79 71 191q0 110 -71 189q-34 39 -81 62q-47 22 -101 22q-18 0 -27 -1q13 22 36 45q33 31 66 31q9 0 33 -6l18 -6l57 155l-20 6q-48 15 -88 15q-47 0 -95 -20q-44 -18 -84 -56q-70 -65 -109 -172q-26 -71 -34 -154q-10 -87 5 -166
q18 -91 68 -145q65 -73 174 -73zM96 526q37 98 99 156q70 65 151 65q28 0 55 -7l-29 -80q-24 3 -26 3q-50 0 -94 -42q-41 -41 -64 -95l-18 -39l42 12q30 9 59 9q45 0 84 -19q38 -18 68 -51q61 -69 61 -163q0 -95 -61 -164q-30 -33 -68 -51q-39 -19 -84 -19q-91 0 -145 59
q-43 50 -57 127q-15 67 -5 154q6 75 32 145zM271 125q49 0 88 42q40 45 40 108q0 61 -39 106q-37 42 -89 42q-53 0 -89 -42q-39 -43 -39 -106t39 -108q39 -42 89 -42zM212 194q-29 32 -29 81q0 46 29 80q25 28 59 28q35 0 58 -28q30 -35 30 -80q0 -48 -30 -81
q-26 -29 -58 -29q-33 0 -59 29z" />
    <glyph glyph-name="seven" unicode="7" horiz-adv-x="464" 
d="M211 -1l1 19q5 63 28.5 140t45 128t65.5 147l9 19q16 35 17 37q27 58 28 62q3 6 4 7q21 53 25 72q10 43 10 108v20h-424v-215h165v65h65q-12 -24 -25 -55l-15 -32q-76 -157 -116.5 -271t-45.5 -230l-1 -21h164zM89 39q9 105 47.5 211.5t109.5 253.5q4 7 15 33q3 7 30 63
v1q4 6 10 20l8 27h-164v-65h-85v135h344q0 -39 -9 -79q-5 -22 -23 -65q-1 -4 -4 -8q-9 -22 -27 -60q-9 -19 -17 -37l-9 -20q-44 -95 -65 -144t-45 -125.5t-31 -140.5h-85z" />
    <glyph glyph-name="eight" unicode="8" horiz-adv-x="503" 
d="M252 -1q98 0 166 77q65 73 65 173t-65 173l-6 7q45 62 45 138q0 91 -58 155q-28 32 -67 51q-39 18 -83 18q-90 0 -151 -69q-57 -63 -57 -155q0 -78 47 -141l-4 -3v-1q-64 -75 -64 -173q0 -100 64 -173q69 -77 168 -77zM114 103q-54 60 -54 146q0 84 54 146l29 30l-15 16
q-47 52 -47 126q0 75 47 128q50 56 121 56t120 -55v-1q48 -51 48 -128q0 -72 -47 -127l-12 -14l30 -31q55 -61 55 -146q0 -86 -55 -146v-1q-57 -63 -136 -63q-80 0 -138 64zM249 469q34 0 57 28q26 29 26 70q0 43 -26 72q-23 28 -57 28q-32 0 -57 -28q-26 -29 -26 -72
q0 -41 26 -70q25 -28 57 -28zM249 627q15 0 26 -14l1 -1q16 -18 16 -45q0 -25 -16 -43l-1 -1q-11 -14 -26 -14q-14 0 -26 14l-1 1q-16 18 -16 43q0 27 16 45l1 1q12 14 26 14zM252 124q43 0 73 35q33 38 33 90q0 54 -33 90q-32 35 -73 35q-42 0 -74 -34l-1 -1
q-32 -37 -32 -90t32 -90q32 -35 75 -35zM207 312q21 22 45 22t43 -21q23 -28 23 -64q0 -37 -23 -63l-1 -1q-18 -21 -42 -21q-25 0 -45 22q-22 25 -22 63q0 39 22 63z" />
    <glyph glyph-name="nine" unicode="9" horiz-adv-x="548" 
d="M196 -1q23 0 55 7q69 15 126 69q70 66 112.5 185t37.5 235q-1 60 -20 114q-19 55 -50 93q-71 86 -184 86q-104 0 -178.5 -80.5t-74.5 -194.5q0 -68 29.5 -128t82.5 -99q44 -32 99 -43q36 -6 70 -2q-23 -38 -49 -56q-42 -31 -87 -15l-18 7l-57 -155l19 -7q46 -16 87 -16z
M141 47l30 80q55 -12 105 26q50 37 80 109l18 40l-42 -13q-94 -31 -177 29q-44 33 -69.5 85t-25.5 110q0 97 62.5 166t150.5 69q95 0 153 -72q28 -35 43 -80q16 -46 18 -103q5 -109 -35 -219q-39 -111 -103 -170q-94 -88 -208 -57zM273 365q56 0 93 46q35 43 35 102
q0 62 -36 104q-37 46 -92 46t-93 -47q-34 -43 -34 -103t35 -103q37 -45 92 -45zM273 623q36 0 62 -31q26 -32 26 -79q0 -45 -26 -76q-24 -32 -62 -32q-36 0 -61.5 32t-25.5 76q0 46 26 78t61 32z" />
    <glyph glyph-name="colon" unicode=":" horiz-adv-x="199" 
d="M99 349q34 0 57 23.5t23 58.5q0 36 -22.5 59.5t-56.5 23.5q-35 0 -57.5 -23t-22.5 -60q0 -35 21 -57q23 -25 58 -25zM100 474q18 0 28.5 -11.5t10.5 -31.5q0 -19 -11 -30t-29 -11q-17 0 -28 11.5t-11 29.5q0 19 11 31t29 12zM99 105q34 0 57 23.5t23 58.5
q0 36 -22.5 59.5t-56.5 23.5q-35 0 -57.5 -23t-22.5 -60q0 -35 21 -57q23 -25 58 -25zM100 230q18 0 28.5 -11.5t10.5 -31.5q0 -19 -11 -30t-29 -11q-17 0 -28 11.5t-11 29.5q0 19 11 31t29 12z" />
    <glyph glyph-name="semicolon" unicode=";" horiz-adv-x="153" 
d="M76 223q-32 0 -55 25q-21 24 -21 56q0 33 21 57q24 24 55 24q32 0 55 -24q22 -25 22 -57q0 -33 -23 -57t-54 -24zM76 345q-15 0 -25.5 -12t-10.5 -29t10.5 -29t25.5 -12t26 12t11 29q0 16 -11.5 28.5t-25.5 12.5zM1 -71v200h151v-118l-21 -38l-27 -44h-103zM41 89v-120
h40l15 24l16 29v67h-71z" />
    <glyph glyph-name="less" unicode="&#x3c;" horiz-adv-x="407" 
d="M371 2l-184 378l239 378h-194l-207 -330l-25 -38l20 -41l168 -347h183zM213 42l-157 324l-10 21l209 331h98l-211 -336l165 -340h-94z" />
    <glyph glyph-name="equal" unicode="=" horiz-adv-x="451" 
d="M451 310v165h-451v-165h451zM40 350v85h371v-85h-371zM451 123v165h-451v-165h451zM40 163v85h371v-85h-371z" />
    <glyph glyph-name="greater" unicode="&#x3e;" horiz-adv-x="407" 
d="M238 4l188 387l-232 368h-194l238 -379l-183 -376h183zM119 44l165 339l-211 336h99l196 -311l12 -20l-10 -21l-157 -323h-94z" />
    <glyph glyph-name="question" unicode="?" horiz-adv-x="490" 
d="M461 612q19 -64 -4 -133q-33 -96 -139 -166q-29 -20 -36 -28q-3 -3 -3 -4l-2 -127l-62 1q24 -8 39 -29t15 -48q0 -33 -22.5 -56.5t-53.5 -23.5t-53.5 23.5t-22.5 56.5q0 27 16 48.5t40 29.5l-59 1l2 128q1 61 44 108q21 24 68 56q60 40 75 82q6 21 1 36q-3 15 -17 26
q-24 19 -63 19q-12 0 -22 -3q-14 -4 -20 -8q-5 -3 -13 -9q-6 -5 -11 -11l-13 -15l-125 104l13 16q14 17 32 32q15 13 38 25q26 16 58 24q34 8 63 8q98 0 166 -56q52 -42 71 -107zM419 491q20 56 4 110q-15 52 -59 87q-56 47 -140 47q-28 0 -53 -7q-23 -5 -49 -20
q-15 -8 -31 -21q-10 -8 -14 -12l64 -54l2 2q6 5 20 13q13 7 29 12q20 4 32 4q54 0 88 -28q24 -21 31 -46q7 -28 -3 -60q-19 -56 -90 -103q-41 -26 -60 -48q-32 -35 -34 -83l-1 -88l83 -1l1 88q0 15 13 28q12 14 44 35q94 62 123 145zM229 78q0 17 -10.5 28.5t-25.5 11.5
t-25.5 -11.5t-10.5 -28.5t10.5 -28.5t25.5 -11.5t25.5 11.5t10.5 28.5z" />
    <glyph glyph-name="at" unicode="@" horiz-adv-x="767" 
d="M405 -62q71 0 139 28q72 30 124 82l14 15l-90 88h4v1q22 3 44 9l1 1q80 29 112 124q21 64 15 145q-7 55 -20 88q-41 110 -143 182q-98 70 -217 70q-160 0 -275 -121q-52 -56 -80 -128q-30 -75 -30 -157q0 -181 107 -300q55 -60 130.5 -93t157.5 -33q2 -1 7 -1zM140 92
q-46 50 -70 117q-27 71 -27 156q0 75 27 142t73 115q103 109 245 109q106 0 194 -62q90 -64 129 -164q12 -33 17 -78q6 -70 -13 -128q-11 -34 -34 -62q-23 -26 -54 -38q-21 -6 -36 -8q-53 -5 -84 22l-12 11l-13 -9q-45 -33 -98 -34q-55 -2 -100 34q-41 32 -57 90v1
q-6 24 -5 49v1q2 52 30 89q32 44 88 58q29 6 61 5h137v-42q0 -4 -1 -6v-17v-15q-2 -42 2 -72q3 -34 8 -48q11 -33 36 -33q8 0 14 4q14 4 24 19q9 12 14 28q14 39 9 94q-1 26 -11 55h-1q-29 78 -98 124q-67 48 -146 48q-105 0 -183 -81h-1q-76 -84 -76 -201q0 -134 74 -216
q40 -43 90 -65q53 -22 106 -22t99 19h1q37 16 67 41l60 -59q-43 -39 -96 -60q-60 -25 -131 -25v1q-154 0 -258 113zM234 538q64 69 154 69q68 0 123 -40q10 -6 24 -19h-133q-39 2 -72 -6q-71 -18 -110 -73q-36 -49 -38 -112q-2 -33 7 -62q16 -67 70 -111h1q55 -45 125 -43
q58 1 108 33q19 -14 48 -20q-24 -21 -59 -36q-38 -16 -84 -16q-44 0 -90 19q-46 21 -76 55q-64 70 -64 189q0 102 66 173zM578 496q7 -11 17 -35q7 -21 9 -44v-1q5 -44 -7 -77q-7 -18 -11 -21q-5 14 -7 42q-2 15 -2 67v16v13q1 3 1 10v30zM384 265q25 0 47 17q13 10 24 27
l5 7l-2 9l-3 23q-2 38 -2 56v20h-54q-16 1 -37 -3l-2 -1q-27 -7 -40 -25l-1 -1q-13 -19 -13 -42q0 -13 3 -25q6 -29 27 -45q22 -17 48 -17zM352 372q4 5 19 10q13 3 25 2h17q1 -6 1 -19t1 -20v-1q0 -1 1 -8t2 -11q-5 -6 -11 -10l-1 -1q-10 -9 -22 -9t-23 8q-11 9 -12 22
l-1 1v1q-2 10 -2 15q0 10 6 20z" />
    <glyph glyph-name="A" unicode="A" horiz-adv-x="549" 
d="M529 2l-184 742h-140l-185 -742h142l28 111h170l27 -111h142zM419 42l-28 111h-232l-28 -111h-60l165 662h78l164 -662h-59zM376 212l-82 330h-39l-82 -330h203zM224 252l51 202l50 -202h-101z" />
    <glyph glyph-name="B" unicode="B" horiz-adv-x="452" 
d="M242 2q90 4 140 60t50 144q0 93 -65 158q65 65 65 158t-66 159q-53 53 -124 63h-222v-742h222zM60 42v662h178q58 -9 100 -51q54 -54 54 -131q0 -76 -54 -130q-4 -4 -14 -12l-19 -16l19 -15q10 -8 14 -13q54 -52 54 -130q0 -70 -42.5 -117t-111.5 -47h-178zM208 401
q52 0 89 37t37 89q0 54 -37 89q-37 37 -89 37h-90v-252h90zM158 441v172h50q34 0 61 -25q25 -25 25 -61q0 -34 -25 -61q-27 -25 -61 -25h-50zM208 91q52 0 89 37t37 89t-37 89t-89 37h-90v-252h90zM158 131v172h50q34 0 61 -25q25 -25 25 -61t-25 -61q-27 -25 -61 -25h-50z
" />
    <glyph glyph-name="C" unicode="C" 
d="M240 2q91 0 155 64q65 65 65 156v20h-139v-20q0 -36 -24 -58q-24 -24 -57 -24q-34 0 -58 24q-24 22 -24 58v310q0 36 24 58q24 24 58 24q33 0 57 -24q24 -22 24 -58v-20h139v20q0 91 -65 156q-64 64 -155 64q-90 0 -156 -64q-64 -66 -64 -156v-310q0 -90 64 -156
q66 -64 156 -64zM240 712q74 0 127 -53q44 -44 52 -107h-59q-6 38 -34 66q-36 36 -86 36t-86 -36t-36 -86v-310q0 -50 36 -86t86 -36t86 36q28 28 34 66h59q-8 -63 -52 -107q-53 -53 -127 -53q-75 0 -128 53q-52 54 -52 127v310q0 73 52 127q53 53 128 53z" />
    <glyph glyph-name="D" unicode="D" horiz-adv-x="452" 
d="M247 2q71 11 122 60q63 63 63 151v329q0 86 -63 151q-36 35 -82 50l-3 1h-264v-742h227zM60 42v662h217q37 -12 63 -40q52 -50 52 -122v-329q0 -73 -52 -122q-40 -41 -97 -49h-183zM217 98q49 0 83 34q34 32 34 81v329q0 47 -34 81q-35 33 -83 33h-98v-558h98zM159 138
v478h58q33 0 55 -22t22 -52v-329q0 -31 -22 -53q-24 -22 -55 -22h-58z" />
    <glyph glyph-name="E" unicode="E" horiz-adv-x="408" 
d="M388 2v138h-230v165h212v138h-212v165h230v136h-368v-742h368zM60 42v662h288v-56h-230v-245h212v-58h-212v-245h230v-58h-288z" />
    <glyph glyph-name="F" unicode="F" horiz-adv-x="421" 
d="M158 2v303h225v138h-225v169h243v132h-381v-742h138zM60 42v662h301v-52h-243v-249h225v-58h-225v-303h-58z" />
    <glyph glyph-name="G" unicode="G" 
d="M240 2q92 0 155 63t63 157l1 222h-278v-138h140v-98q-5 -30 -29 -49t-52 -19q-33 0 -57.5 24t-24.5 58v307q0 32 24 58q26 24 58 24t58 -24q24 -26 24 -58v-20h138v20q0 91 -64 155q-65 65 -156 65q-92 0 -155 -65q-65 -63 -65 -155v-307q0 -91 65 -156q64 -64 155 -64z
M240 709q74 0 127 -53q44 -42 52 -107h-59q-6 38 -34 66q-36 36 -86 36t-86 -36t-36 -86v-307q0 -50 36 -86t86 -36q53 0 84 33t37 93v120h-140v58h198l-1 -202q0 -62 -55 -111t-123 -49q-74 0 -127 53t-53 127v307q0 74 53 127t127 53z" />
    <glyph glyph-name="H" unicode="H" horiz-adv-x="456" 
d="M436 2v742h-139v-301h-139v301h-138v-742h138v303h139v-303h139zM337 42v303h-219v-303h-58v662h58v-301h219v301h59v-662h-59z" />
    <glyph glyph-name="I" unicode="I" horiz-adv-x="358" 
d="M338 2v137h-90v473h90v132h-318v-132h90v-473h-90v-137h318zM60 42v57h90v553h-90v52h238v-52h-90v-553h90v-57h-238z" />
    <glyph glyph-name="J" unicode="J" horiz-adv-x="428" 
d="M241 2q64 9 110 55q57 57 57 137v550h-138v-550q0 -24 -17 -39q-15 -17 -39 -17q-23 0 -40 17q-16 16 -16 39v202h-138v-202q0 -80 57 -137q46 -46 110 -55h54zM191 42q-49 7 -86 43q-45 45 -45 109v162h58v-162q0 -38 28 -68q28 -28 68 -28t68 28q28 30 28 68v510h58
v-510q0 -64 -45 -109q-37 -36 -86 -43h-46z" />
    <glyph glyph-name="K" unicode="K" horiz-adv-x="450" 
d="M430 2l-158 430l152 312h-153l-113 -230v230h-138v-742h138v196l30 62l95 -258h147zM311 42l-118 320l-75 -155v-165h-58v662h58v-366l178 366h64l-131 -270l144 -392h-62z" />
    <glyph glyph-name="L" unicode="L" horiz-adv-x="369" 
d="M158 2v2h191v138h-191v604h-138v-744h138zM60 42v664h58v-604h191v-58h-191v-2h-58z" />
    <glyph glyph-name="M" unicode="M" horiz-adv-x="681" 
d="M661 2v742h-159l-161 -510l-161 510h-160v-742h139v350l110 -350h143l111 350v-350h138zM563 42v577l-180 -577h-85l-179 577v-577h-59v662h90l172 -543h38l171 543h90v-662h-58z" />
    <glyph glyph-name="N" unicode="N" horiz-adv-x="463" 
d="M443 2v742h-138v-405l-151 405h-134v-742h138v336l126 -336h159zM312 42l-194 525v-525h-58v662h66l222 -595l-3 595h58v-662h-91z" />
    <glyph glyph-name="O" unicode="O" horiz-adv-x="505" 
d="M253 2q96 0 164 68t68 164v275q0 47 -18 91q-18 41 -50 75q-70 70 -164 70q-96 0 -164 -70q-34 -34 -50 -75q-19 -46 -19 -91v-275q0 -95 69 -164q66 -68 164 -68zM253 705q79 0 135 -58q57 -59 57 -138v-275q0 -79 -57 -136q-56 -56 -135 -56q-80 0 -136 56
q-57 57 -57 136v275q0 79 57 138q56 58 136 58zM253 100q55 0 94 39q40 40 40 95v275q0 56 -40 98q-40 40 -94 40q-56 0 -94 -40q-40 -40 -40 -98v-275q0 -54 39 -95q39 -39 95 -39zM253 607q37 0 65 -28q29 -31 29 -70v-275q0 -38 -28 -66t-66 -28q-39 0 -67 28
q-27 27 -27 66v275q0 40 28 70q28 28 66 28z" />
    <glyph glyph-name="P" unicode="P" horiz-adv-x="469" 
d="M158 2v285h59q96 0 164 68t68 164t-68 164q-45 45 -105 60l-2 1h-254v-742h138zM60 42v662h209q47 -14 84 -49q56 -56 56 -136q0 -78 -56 -136q-58 -56 -136 -56h-99v-285h-58zM217 385q55 0 94 39q40 40 40 95q0 57 -40 95q-39 39 -94 39h-99v-268h99zM158 425v188h59
q37 0 66 -27q28 -28 28 -67q0 -40 -28 -66q-28 -28 -66 -28h-59z" />
    <glyph glyph-name="Q" unicode="Q" horiz-adv-x="528" 
d="M508 2l-69 97q45 61 45 137v275q0 47 -18 90q-17 42 -50 76q-68 70 -164 70t-164 -70q-33 -34 -50 -76q-18 -43 -18 -90v-275q0 -96 68 -164t164 -68q41 0 77 13l10 -15h169zM360 42l-17 24l-15 -7q-36 -15 -76 -15q-78 0 -136 56q-56 56 -56 136v275q0 81 57 138
q56 58 135 58q78 0 136 -58q56 -58 56 -138v-275q0 -70 -45 -124l-10 -12l42 -58h-71zM252 102q14 0 29 3l29 6l-48 68h71l24 -33l15 29q14 30 14 61v275q0 57 -40 97q-38 41 -94 41q-55 0 -94 -41q-40 -42 -40 -97v-275q0 -54 39 -95q41 -39 95 -39zM252 609q38 0 65 -29
q29 -27 29 -69v-275q0 -12 -1 -17h-160l54 -76q-32 5 -53 26q-28 28 -28 67v275q0 42 29 69q27 29 65 29z" />
    <glyph glyph-name="R" unicode="R" horiz-adv-x="460" 
d="M440 2l-17 30q-25 43 -43 159q-17 102 -32 145q14 12 21 19q68 68 68 164t-68 164q-45 45 -104 60l-3 1h-242v-742h138v285h47h13q13 -32 26 -117q17 -107 34 -155l5 -13h157zM311 42q-14 46 -28 134q-15 102 -34 141l-6 13l-14 -2q-4 0 -12 -0.5t-12 -0.5h-87v-285h-58
v662h197q49 -14 84 -49q56 -56 56 -136q0 -78 -56 -136q-12 -12 -29 -24l-14 -9l7 -15q20 -50 35 -150q16 -102 33 -143h-62zM205 385q56 0 95 39q39 41 39 95q0 56 -39 95t-95 39h-87v-268h87zM158 425v188h47q38 0 67 -27q27 -29 27 -67q0 -39 -27 -66q-28 -28 -67 -28
h-47z" />
    <glyph glyph-name="S" unicode="S" horiz-adv-x="462" 
d="M229 2q78 0 137 51q56 50 72 131q16 84 -24 156q-38 71 -117 102q-24 9 -70 23l-18 5q-37 14 -48 42q-5 16 -2 34q3 19 14 35q22 30 56 30q29 0 48 -18q17 -15 17 -38v-108h138v108q0 81 -61 139q-60 55 -142 55q-105 0 -168 -88q-30 -41 -38 -93q-9 -54 9 -102
q15 -45 51 -78t90 -51l14 -4q6 -2 28 -9t33 -11q30 -12 45 -38q16 -33 9 -66q-6 -34 -27 -53q-21 -16 -46 -16q-29 0 -48 18q-17 15 -17 38v123h-138v-123q0 -81 61 -139q61 -55 142 -55zM66 279h58v-83q0 -39 30 -67q31 -29 75 -29q43 0 72 27q32 27 41 74q9 50 -14 93
q-22 39 -66 56q-24 10 -49 17l-26 8q-90 28 -118 104q-13 39 -7 83q8 43 31 76q23 31 58 52q35 19 78 19q68 0 114 -44q49 -46 49 -110v-68h-58v68q0 40 -30 68q-31 28 -75 28q-55 0 -88 -47q-17 -24 -22 -51q-5 -29 5 -54q17 -50 80 -69l31 -9q5 -2 14.5 -5t18 -5.5
t15.5 -5.5q66 -27 96 -84q32 -60 20 -130q-12 -67 -60 -108q-46 -41 -110 -41q-67 0 -114 45q-49 44 -49 109v83z" />
    <glyph glyph-name="T" unicode="T" 
d="M311 2v606h149v136h-440v-136h153v-606h138zM213 42v606h-153v56h360v-56h-149v-606h-58z" />
    <glyph glyph-name="U" unicode="U" horiz-adv-x="467" 
d="M259 2q75 10 125 61q63 63 63 151v530h-138v-530q0 -31 -22 -53q-24 -22 -54 -22q-31 0 -53 22t-22 53v530h-138v-530q0 -87 62 -151q52 -52 125 -61h52zM211 42q-59 8 -100 49q-51 51 -51 123v490h58v-490q0 -49 34 -81q34 -34 81 -34q48 0 82 34q34 32 34 81v490h58
v-490q0 -72 -51 -123q-41 -41 -100 -49h-45z" />
    <glyph glyph-name="V" unicode="V" horiz-adv-x="553" 
d="M348 2l185 742h-143l-114 -458l-114 458h-142l185 -742h143zM236 42l-165 662h60l126 -506h39l126 506h59l-164 -662h-81z" />
    <glyph glyph-name="W" unicode="W" horiz-adv-x="913" 
d="M709 2l184 742h-142l-114 -458l-114 458h-133l-114 -458l-114 458h-142l184 -742h143l109 439l110 -439h143zM597 42l-121 487h-39l-121 -487h-81l-164 662h59l126 -506h39l126 506h71l126 -506h39l125 506h60l-164 -662h-81z" />
    <glyph glyph-name="X" unicode="X" horiz-adv-x="511" 
d="M491 2l-161 391l144 351h-149l-69 -170l-70 170h-149l144 -351l-161 -391h149l87 210l86 -210h149zM369 42l-115 275l-111 -275h-63l144 351l-128 311h63l95 -232l98 232h63l-128 -311l144 -351h-62z" />
    <glyph glyph-name="Y" unicode="Y" horiz-adv-x="487" 
d="M313 2v366l154 376h-149l-75 -181l-74 181h-149l154 -376v-366h139zM214 42v334l-134 328h62l83 -202h37l83 202h62l-134 -328v-334h-59z" />
    <glyph glyph-name="Z" unicode="Z" horiz-adv-x="435" 
d="M415 2v137h-237l237 475v130h-395v-138h236l-236 -475v-129h395zM60 42v80l261 524h-261v58h315v-81l-262 -524h262v-57h-315z" />
    <glyph glyph-name="bracketleft" unicode="[" horiz-adv-x="254" 
d="M258 -34v146h-91v465h91v158h-258v-769h258zM40 6v689h178v-78h-91v-545h91v-66h-178z" />
    <glyph glyph-name="backslash" unicode="\" horiz-adv-x="421" 
d="M438 0l-263 756h-175l264 -756h174zM293 40l-236 676h89l235 -676h-88z" />
    <glyph glyph-name="bracketright" unicode="]" horiz-adv-x="248" 
d="M257 -34v769h-257v-158h90v-465h-90v-146h257zM40 6v66h90v545h-90v78h177v-689h-177z" />
    <glyph glyph-name="asciicircum" unicode="^" horiz-adv-x="325" 
d="M354 553l-177 307l-70 -123l-107 -184h165l12 23l13 -23h164zM213 593l-36 63l-36 -63h-71l107 187l108 -187h-72z" />
    <glyph glyph-name="underscore" unicode="_" horiz-adv-x="451" 
d="M429 -25v165h-450v-165h450zM19 15v85h370v-85h-370z" />
    <glyph glyph-name="a" unicode="a" horiz-adv-x="549" 
d="M529 2l-184 742h-140l-185 -742h142l28 111h170l27 -111h142zM419 42l-28 111h-232l-28 -111h-60l165 662h78l164 -662h-59zM376 212l-82 330h-39l-82 -330h203zM224 252l51 202l50 -202h-101z" />
    <glyph glyph-name="b" unicode="b" horiz-adv-x="452" 
d="M242 2q90 4 140 60t50 144q0 93 -65 158q65 65 65 158t-66 159q-53 53 -124 63h-222v-742h222zM60 42v662h178q58 -9 100 -51q54 -54 54 -131q0 -76 -54 -130q-4 -4 -14 -12l-19 -16l19 -15q10 -8 14 -13q54 -52 54 -130q0 -70 -42.5 -117t-111.5 -47h-178zM208 399
q52 0 89 37t37 89q0 54 -37 89q-37 37 -89 37h-90v-252h90zM158 439v172h50q34 0 61 -25q25 -25 25 -61q0 -34 -25 -61q-27 -25 -61 -25h-50zM208 91q52 0 89 37t37 89t-37 89t-89 37h-90v-252h90zM158 131v172h50q34 0 61 -25q25 -25 25 -61t-25 -61q-27 -25 -61 -25h-50z
" />
    <glyph glyph-name="c" unicode="c" 
d="M240 2q91 0 155 64q65 65 65 156v20h-139v-20q0 -36 -24 -58q-24 -24 -57 -24q-34 0 -58 24q-24 22 -24 58v310q0 36 24 58q24 24 58 24q33 0 57 -24q24 -22 24 -58v-20h139v20q0 91 -65 156q-64 64 -155 64q-90 0 -156 -64q-64 -66 -64 -156v-310q0 -90 64 -156
q66 -64 156 -64zM240 712q74 0 127 -53q44 -44 52 -107h-59q-6 38 -34 66q-36 36 -86 36t-86 -36t-36 -86v-310q0 -50 36 -86t86 -36t86 36q28 28 34 66h59q-8 -63 -52 -107q-53 -53 -127 -53q-75 0 -128 53q-52 54 -52 127v310q0 73 52 127q53 53 128 53z" />
    <glyph glyph-name="d" unicode="d" horiz-adv-x="452" 
d="M247 2q71 11 122 60q63 63 63 151v329q0 86 -63 151q-36 35 -82 50l-3 1h-264v-742h227zM60 42v662h217q37 -12 63 -40q52 -50 52 -122v-329q0 -73 -52 -122q-40 -41 -97 -49h-183zM217 98q49 0 83 34q34 32 34 81v329q0 47 -34 81q-35 33 -83 33h-98v-558h98zM159 138
v478h58q33 0 55 -22t22 -52v-329q0 -31 -22 -53q-24 -22 -55 -22h-58z" />
    <glyph glyph-name="e" unicode="e" horiz-adv-x="408" 
d="M388 2v138h-230v165h212v138h-212v165h230v136h-368v-742h368zM60 42v662h288v-56h-230v-245h212v-58h-212v-245h230v-58h-288z" />
    <glyph glyph-name="f" unicode="f" horiz-adv-x="421" 
d="M158 2v303h225v138h-225v169h243v132h-381v-742h138zM60 42v662h301v-52h-243v-249h225v-58h-225v-303h-58z" />
    <glyph glyph-name="g" unicode="g" 
d="M240 2q92 0 155 63t63 157l1 222h-278v-138h140v-98q-5 -30 -29 -49t-52 -19q-33 0 -57.5 24t-24.5 58v307q0 32 24 58q26 24 58 24t58 -24q24 -26 24 -58v-20h138v20q0 91 -64 155q-65 65 -156 65q-92 0 -155 -65q-65 -63 -65 -155v-307q0 -91 65 -156q64 -64 155 -64z
M240 709q74 0 127 -53q44 -42 52 -107h-59q-6 38 -34 66q-36 36 -86 36t-86 -36t-36 -86v-307q0 -50 36 -86t86 -36q53 0 84 33t37 93v120h-140v58h198l-1 -202q0 -62 -55 -111t-123 -49q-74 0 -127 53t-53 127v307q0 74 53 127t127 53z" />
    <glyph glyph-name="h" unicode="h" horiz-adv-x="456" 
d="M436 2v742h-139v-301h-139v301h-138v-742h138v303h139v-303h139zM337 42v303h-219v-303h-58v662h58v-301h219v301h59v-662h-59z" />
    <glyph glyph-name="i" unicode="i" horiz-adv-x="358" 
d="M338 2v137h-90v473h90v132h-318v-132h90v-473h-90v-137h318zM60 42v57h90v553h-90v52h238v-52h-90v-553h90v-57h-238z" />
    <glyph glyph-name="j" unicode="j" horiz-adv-x="428" 
d="M241 2q64 9 110 55q57 57 57 137v550h-138v-550q0 -24 -17 -39q-15 -17 -39 -17q-23 0 -40 17q-16 16 -16 39v202h-138v-202q0 -80 57 -137q46 -46 110 -55h54zM191 42q-49 7 -86 43q-45 45 -45 109v162h58v-162q0 -38 28 -68q28 -28 68 -28t68 28q28 30 28 68v510h58
v-510q0 -64 -45 -109q-37 -36 -86 -43h-46z" />
    <glyph glyph-name="k" unicode="k" horiz-adv-x="450" 
d="M430 2l-158 430l152 312h-153l-113 -230v230h-138v-742h138v196l30 62l95 -258h147zM311 42l-118 320l-75 -155v-165h-58v662h58v-357l178 357h64l-131 -270l144 -392h-62z" />
    <glyph glyph-name="l" unicode="l" horiz-adv-x="369" 
d="M158 2v2h191v138h-191v604h-138v-744h138zM60 42v664h58v-604h191v-58h-191v-2h-58z" />
    <glyph glyph-name="m" unicode="m" horiz-adv-x="681" 
d="M661 2v742h-159l-161 -510l-161 510h-160v-742h139v350l110 -350h143l111 350v-350h138zM563 42v577l-180 -577h-85l-179 577v-577h-59v662h90l172 -543h38l171 543h90v-662h-58z" />
    <glyph glyph-name="n" unicode="n" horiz-adv-x="463" 
d="M443 2v742h-138v-405l-151 405h-134v-742h138v336l126 -336h159zM312 42l-194 525v-525h-58v662h66l222 -595l-3 595h58v-662h-91z" />
    <glyph glyph-name="o" unicode="o" horiz-adv-x="505" 
d="M253 2q96 0 164 68t68 164v275q0 47 -18 91q-18 41 -50 75q-70 70 -164 70q-96 0 -164 -70q-34 -34 -50 -75q-19 -46 -19 -91v-275q0 -95 69 -164q66 -68 164 -68zM253 705q79 0 135 -58q57 -59 57 -138v-275q0 -79 -57 -136q-56 -56 -135 -56q-80 0 -136 56
q-57 57 -57 136v275q0 79 57 138q56 58 136 58zM253 100q55 0 94 39q40 40 40 95v275q0 56 -40 98q-40 40 -94 40q-56 0 -94 -40q-40 -40 -40 -98v-275q0 -54 39 -95q39 -39 95 -39zM253 607q37 0 65 -28q29 -31 29 -70v-275q0 -38 -28 -66t-66 -28q-39 0 -67 28
q-27 27 -27 66v275q0 40 28 70q28 28 66 28z" />
    <glyph glyph-name="p" unicode="p" horiz-adv-x="469" 
d="M158 2v285h59q96 0 164 68t68 164t-68 164q-45 45 -105 60l-2 1h-254v-742h138zM60 42v662h209q47 -14 84 -49q56 -56 56 -136q0 -78 -56 -136q-58 -56 -136 -56h-99v-285h-58zM217 385q55 0 94 39q40 40 40 95q0 57 -40 95q-39 39 -94 39h-99v-268h99zM158 425v188h59
q37 0 66 -27q28 -28 28 -67q0 -40 -28 -66q-28 -28 -66 -28h-59z" />
    <glyph glyph-name="q" unicode="q" horiz-adv-x="528" 
d="M508 2l-69 97q45 61 45 137v275q0 47 -18 90q-17 42 -50 76q-68 70 -164 70t-164 -70q-33 -34 -50 -76q-18 -43 -18 -90v-275q0 -96 68 -164t164 -68q41 0 77 13l10 -15h169zM360 42l-17 24l-15 -7q-36 -15 -76 -15q-78 0 -136 56q-56 56 -56 136v275q0 81 57 138
q56 58 135 58q78 0 136 -58q56 -58 56 -138v-275q0 -70 -45 -124l-10 -12l42 -58h-71zM252 102q14 0 29 3l29 6l-48 68h71l24 -33l15 29q14 30 14 61v275q0 57 -40 97q-38 41 -94 41q-55 0 -94 -41q-40 -42 -40 -97v-275q0 -54 39 -95q41 -39 95 -39zM252 609q38 0 65 -29
q29 -27 29 -69v-275q0 -12 -1 -17h-160l54 -76q-32 5 -53 26q-28 28 -28 67v275q0 42 29 69q27 29 65 29z" />
    <glyph glyph-name="r" unicode="r" horiz-adv-x="460" 
d="M440 2l-17 30q-25 43 -43 159q-17 102 -32 145q14 12 21 19q68 68 68 164t-68 164q-45 45 -104 60l-3 1h-242v-742h138v285h47h13q13 -32 26 -117q17 -107 34 -155l5 -13h157zM311 42q-14 46 -28 134q-15 102 -34 141l-6 13l-14 -2q-4 0 -12 -0.5t-12 -0.5h-87v-285h-58
v662h197q49 -14 84 -49q56 -56 56 -136q0 -78 -56 -136q-12 -12 -29 -24l-14 -9l7 -15q20 -50 35 -150q16 -102 33 -143h-62zM205 385q56 0 95 39q39 41 39 95q0 56 -39 95t-95 39h-87v-268h87zM158 425v188h47q38 0 67 -27q27 -29 27 -67q0 -39 -27 -66q-28 -28 -67 -28
h-47z" />
    <glyph glyph-name="s" unicode="s" horiz-adv-x="462" 
d="M229 2q78 0 137 51q56 50 72 131q16 84 -24 156q-38 71 -117 102q-24 9 -70 23l-18 5q-37 14 -48 42q-5 16 -2 34q3 19 14 35q22 30 56 30q29 0 48 -18q17 -15 17 -38v-108h138v108q0 81 -61 139q-60 55 -142 55q-105 0 -168 -88q-30 -41 -38 -93q-9 -54 9 -102
q15 -45 51 -78t90 -51l14 -4q6 -2 28 -9t33 -11q30 -12 45 -38q16 -33 9 -66q-6 -34 -27 -53q-21 -16 -46 -16q-29 0 -48 18q-17 15 -17 38v123h-138v-123q0 -81 61 -139q61 -55 142 -55zM66 279h58v-83q0 -39 30 -67q31 -29 75 -29q43 0 72 27q32 27 41 74q9 50 -14 93
q-22 39 -66 56q-24 10 -49 17l-26 8q-90 28 -118 104q-13 39 -7 83q8 43 31 76q23 31 58 52q35 19 78 19q68 0 114 -44q49 -46 49 -110v-68h-58v68q0 40 -30 68q-31 28 -75 28q-55 0 -88 -47q-17 -24 -22 -51q-5 -29 5 -54q17 -50 80 -69l31 -9q5 -2 14.5 -5t18 -5.5
t15.5 -5.5q66 -27 96 -84q32 -60 20 -130q-12 -67 -60 -108q-46 -41 -110 -41q-67 0 -114 45q-49 44 -49 109v83z" />
    <glyph glyph-name="t" unicode="t" 
d="M311 2v606h149v136h-440v-136h153v-606h138zM213 42v606h-153v56h360v-56h-149v-606h-58z" />
    <glyph glyph-name="u" unicode="u" horiz-adv-x="467" 
d="M259 2q75 10 125 61q63 63 63 151v530h-138v-530q0 -31 -22 -53q-24 -22 -54 -22q-31 0 -53 22t-22 53v530h-138v-530q0 -87 62 -151q52 -52 125 -61h52zM211 42q-59 8 -100 49q-51 51 -51 123v490h58v-490q0 -49 34 -81q34 -34 81 -34q48 0 82 34q34 32 34 81v490h58
v-490q0 -72 -51 -123q-41 -41 -100 -49h-45z" />
    <glyph glyph-name="v" unicode="v" horiz-adv-x="553" 
d="M348 2l185 742h-143l-114 -458l-114 458h-142l185 -742h143zM236 42l-165 662h60l126 -506h39l126 506h59l-164 -662h-81z" />
    <glyph glyph-name="w" unicode="w" horiz-adv-x="913" 
d="M709 2l184 742h-142l-114 -458l-114 458h-133l-114 -458l-114 458h-142l184 -742h143l109 439l110 -439h143zM597 42l-121 487h-39l-121 -487h-81l-164 662h59l126 -506h39l126 506h71l126 -506h39l125 506h60l-164 -662h-81z" />
    <glyph glyph-name="x" unicode="x" horiz-adv-x="511" 
d="M491 2l-161 391l144 351h-149l-69 -170l-70 170h-149l144 -351l-161 -391h149l87 210l86 -210h149zM369 42l-95 230h-37l-94 -230h-63l144 351l-128 311h63l78 -190h37l78 190h63l-128 -311l144 -351h-62z" />
    <glyph glyph-name="y" unicode="y" horiz-adv-x="487" 
d="M313 2v366l154 376h-149l-75 -181l-74 181h-149l154 -376v-366h139zM214 42v334l-134 328h62l83 -202h37l83 202h62l-134 -328v-334h-59z" />
    <glyph glyph-name="z" unicode="z" horiz-adv-x="435" 
d="M415 2v137h-237l237 475v130h-395v-138h236l-236 -475v-129h395zM60 42v80l261 524h-261v58h315v-81l-262 -524h262v-57h-315z" />
    <glyph glyph-name="braceleft" unicode="{" horiz-adv-x="328" 
d="M337 -36v154h-95v141l-14 40l-43 59l48 78l9 35v109h95v155h-249v-240l-62 -102l-26 -45l31 -41l57 -76v-267h249zM128 4v240l-80 107l12 21l68 111v212h169v-75h-95v-144l-6 -24l-59 -96l55 -76l10 -28v-174h95v-74h-169z" />
    <glyph glyph-name="braceright" unicode="}" horiz-adv-x="328" 
d="M250 -36v267l57 76l30 41l-87 147v240h-250v-155h96v-109l9 -35l48 -78l-44 -59l-13 -40v-141h-96v-154h250zM40 4v74h96v175l9 27l56 76l-59 96l-6 24v144h-96v75h170v-211l67 -112l12 -21l-14 -20l-65 -87v-240h-170z" />
    <glyph glyph-name="asciitilde" unicode="~" horiz-adv-x="600" 
d="M418 188h3q99 1 183 117l12 17l-132 96l-12 -16q-30 -41 -66 -41q-21 1 -71 26q-98 51 -152 52q-92 0 -170 -100l-13 -16l130 -102l12 16q16 21 34.5 26t34.5 -0.5t48 -21.5h1q102 -53 158 -53zM190 306q-37 0 -66 -29l-67 52q61 70 124 70h2q42 -1 134 -48
q58 -29 88 -30q48 -1 87 42l68 -50q-34 -42 -69 -63q-34 -22 -70 -22h-3q-48 0 -140 48l-1 1q-50 26 -79 28q-2 0 -4.5 0.5t-3.5 0.5z" />
    <glyph glyph-name="uni00A0" unicode="&#xa0;" horiz-adv-x="234" 
 />
    <glyph glyph-name="guillemotleft" unicode="&#xab;" horiz-adv-x="705" 
d="M391 2l-184 378l239 378h-194l-207 -330l-25 -38l20 -41l168 -347h183zM630 2l-184 378l239 378h-194l-207 -330l-25 -38l20 -41l168 -347h183zM233 42l-157 324l-10 21l209 331h98l-211 -336l165 -340h-94zM472 42l-157 324l-10 21l209 331h98l-211 -336l165 -340h-94z
" />
    <glyph glyph-name="periodcentered" unicode="&#xb7;" horiz-adv-x="199" 
d="M99 259q34 0 57 23.5t23 58.5q0 36 -22.5 59.5t-56.5 23.5q-35 0 -57.5 -23t-22.5 -60q0 -35 21 -57q23 -25 58 -25zM100 384q18 0 28.5 -11.5t10.5 -31.5q0 -19 -11 -30t-29 -11q-17 0 -28 11.5t-11 29.5q0 19 11 31t29 12z" />
    <glyph glyph-name="guillemotright" unicode="&#xbb;" horiz-adv-x="723" 
d="M258 4l188 387l-232 368h-194l238 -379l-183 -376h183zM515 4l188 387l-232 368h-194l238 -379l-183 -376h183zM139 44l165 339l-211 336h99l196 -311l12 -20l-10 -21l-157 -323h-94zM396 44l165 339l-211 336h99l196 -311l12 -20l-10 -21l-157 -323h-94z" />
    <glyph glyph-name="endash" unicode="&#x2013;" horiz-adv-x="490" 
d="M470 219v165h-450v-165h450zM60 259v85h370v-85h-370z" />
    <glyph glyph-name="emdash" unicode="&#x2014;" horiz-adv-x="598" 
d="M578 219v165h-558v-165h558zM60 259v85h478v-85h-478z" />
    <glyph glyph-name="quoteleft" unicode="&#x2018;" horiz-adv-x="191" 
d="M20 751h151v-118l-21 -38l-27 -45h-103v201zM131 643v68h-71v-121h40l15 25z" />
    <glyph glyph-name="quoteright" unicode="&#x2019;" horiz-adv-x="191" 
d="M20 751h151v-118l-21 -38l-27 -45h-103v201zM131 643v68h-71v-121h40l15 25z" />
    <glyph glyph-name="quotesinglbase" unicode="&#x201a;" horiz-adv-x="191" 
d="M20 106h151v-118l-21 -38l-27 -45h-103v201zM131 -2v68h-71v-121h40l15 25z" />
    <glyph glyph-name="quotedblleft" unicode="&#x201c;" horiz-adv-x="368" 
d="M20 717h151v-118l-21 -38l-27 -45h-103v201zM197 715h151v-118l-21 -38l-27 -45h-103v201zM131 609v68h-71v-121h40l15 25zM308 607v68h-71v-121h40l15 25z" />
    <glyph glyph-name="quotedblright" unicode="&#x201d;" horiz-adv-x="378" 
d="M20 751h151v-118l-21 -38l-27 -45h-103v201zM207 751h151v-118l-21 -38l-27 -45h-103v201zM131 643v68h-71v-121h40l15 25zM318 643v68h-71v-121h40l15 25z" />
    <glyph glyph-name="quotedblbase" unicode="&#x201e;" horiz-adv-x="191" 
d="M20 106h151v-118l-21 -38l-27 -45h-103v201zM131 -2v68h-71v-121h40l15 25z" />
    <glyph glyph-name="bullet" unicode="&#x2022;" horiz-adv-x="199" 
d="M99 232q34 0 57 23.5t23 58.5q0 36 -22.5 59.5t-56.5 23.5q-35 0 -57.5 -23t-22.5 -60q0 -34 21 -57q23 -25 58 -25zM100 357q18 0 28.5 -11.5t10.5 -31.5q0 -19 -11 -30t-29 -11q-17 0 -28 11.5t-11 29.5q0 19 11 31t29 12z" />
    <glyph glyph-name="ellipsis" unicode="&#x2026;" horiz-adv-x="199" 
d="M100 170q34 0 56.5 -23.5t22.5 -59.5q0 -35 -23 -58.5t-57 -23.5q-35 0 -58 25q-21 22 -21 57q0 37 22.5 60t57.5 23zM99 46q18 0 29 11t11 30q0 20 -10.5 31.5t-28.5 11.5t-29 -12t-11 -31q0 -18 11 -29.5t28 -11.5z" />
    <glyph glyph-name="guilsinglleft" unicode="&#x2039;" horiz-adv-x="466" 
d="M391 2l-184 378l239 378h-194l-207 -330l-25 -38l20 -41l168 -347h183zM233 42l-157 324l-10 21l209 331h98l-211 -336l165 -340h-94z" />
    <glyph glyph-name="guilsinglright" unicode="&#x203a;" horiz-adv-x="466" 
d="M258 4l188 387l-232 368h-194l238 -379l-183 -376h183zM139 44l165 339l-211 336h99l196 -311l12 -20l-10 -21l-157 -323h-94z" />
    </font>
</defs>
</svg>
